#N canvas 615 22 450 300 10;
#X obj 141 148 select path;
#X obj 141 82 inlet;
#X obj 204 178 outlet;
#X obj 141 114 t a a;
#X connect 0 1 2 0;
#X connect 1 0 3 0;
#X connect 3 0 0 1;
#X connect 3 1 0 0;
