#N canvas 314 427 602 462 10;
#X obj 162 49 inlet;
#X obj 230 47 inlet;
#X obj 249 131 folder_list;
#X obj 230 75 tosymbol;
#X obj 249 224 list-len;
#X obj 249 309 outlet;
#X obj 162 305 list-idx;
#X obj 162 131 t b f;
#X obj 162 330 outlet;
#X obj 207 279 int;
#X obj 207 254 *;
#X obj 162 229 list;
#X obj 249 196 tolist;
#X obj 230 103 t b s b;
#X connect 0 0 7 0;
#X connect 1 0 3 0;
#X connect 2 0 12 0;
#X connect 3 0 13 0;
#X connect 4 0 5 0;
#X connect 4 0 10 1;
#X connect 6 0 8 0;
#X connect 7 0 11 0;
#X connect 7 1 10 0;
#X connect 9 0 6 1;
#X connect 10 0 9 0;
#X connect 11 0 6 0;
#X connect 12 0 4 0;
#X connect 12 0 11 1;
#X connect 13 0 12 1;
#X connect 13 1 2 0;
#X connect 13 2 12 0;
