#N canvas 894 266 450 300 10;
#X obj 61 51 inlet;
#X obj 182 49 loadbang;
#X obj 61 76 i;
#X obj 138 76 i \$1;
#X obj 93 76 + 1;
#X obj 61 197 outlet;
#X obj 138 101 - 1;
#X obj 61 171 sel 0;
#X obj 61 145 % 8;
#X obj 138 49 inlet;
#X connect 0 0 2 0;
#X connect 1 0 3 0;
#X connect 2 0 4 0;
#X connect 2 0 8 0;
#X connect 3 0 6 0;
#X connect 4 0 2 1;
#X connect 6 0 8 1;
#X connect 7 0 5 0;
#X connect 8 0 7 0;
#X connect 9 0 3 0;
