#N canvas 615 23 564 613 10;
#X obj 156 240 t b f;
#X obj 156 295 list-idx;
#X obj 156 267 list;
#X obj 177 142 t l l;
#X obj 204 169 list-len;
#X obj 156 210 random;
#X obj 156 99 inlet;
#X obj 156 352 outlet;
#X obj 199 99 inlet;
#X connect 0 0 2 0;
#X connect 0 1 1 1;
#X connect 1 0 7 0;
#X connect 2 0 1 0;
#X connect 3 0 2 1;
#X connect 3 1 4 0;
#X connect 4 0 5 1;
#X connect 5 0 0 0;
#X connect 6 0 5 0;
#X connect 8 0 3 0;
