#N canvas 532 471 450 300 10;
#X obj 142 58 inlet;
#X obj 142 85 route bang symbol;
#X obj 191 139 soundfiler;
#X obj 142 193 outlet~;
#X obj 142 166 tabplay~ \$0-sample;
#X msg 191 112 read -resize \$1 \$0-sample;
#X obj 186 58 table \$0-sample;
#X connect 0 0 1 0;
#X connect 1 0 4 0;
#X connect 1 1 5 0;
#X connect 4 0 3 0;
#X connect 5 0 2 0;
