#N canvas 79 338 450 323 10;
#X obj 142 58 inlet;
#X obj 232 139 soundfiler;
#X obj 142 193 outlet~;
#X obj 142 166 tabplay~ \$0-sample;
#X msg 232 112 read -resize \$1 \$0-sample;
#X obj 186 58 table \$0-sample;
#X obj 187 112 sel 1;
#X obj 142 85 route bang float symbol;
#X connect 0 0 7 0;
#X connect 3 0 2 0;
#X connect 4 0 1 0;
#X connect 6 0 3 0;
#X connect 7 0 3 0;
#X connect 7 1 6 0;
#X connect 7 2 4 0;
