#N canvas 499 555 450 300 10;
#X obj 126 67 inlet;
#X obj 261 94 i \$1;
#X obj 261 67 loadbang;
#X obj 126 152 outlet;
#X obj 126 122 expr random(0 \, $f2)/$f2;
#X connect 0 0 4 0;
#X connect 1 0 4 1;
#X connect 2 0 1 0;
#X connect 4 0 3 0;
