#N canvas 852 380 450 300 10;
#X obj 126 67 inlet;
#X obj 190 94 i \$1;
#X obj 255 94 i \$2;
#X obj 190 67 loadbang;
#X obj 255 67 loadbang;
#X obj 126 172 outlet;
#X obj 126 94 randomF 1;
#X obj 126 122 expr $f2+$f1*($f3-$f2);
#X obj 126 147 int;
#X connect 0 0 6 0;
#X connect 1 0 7 1;
#X connect 2 0 7 2;
#X connect 3 0 1 0;
#X connect 4 0 2 0;
#X connect 6 0 7 0;
#X connect 7 0 8 0;
#X connect 8 0 5 0;
