#N canvas 541 429 450 300 10;
#X obj 175 79 loadbang;
#X obj 132 109 f \$1;
#X obj 78 79 inlet;
#X obj 132 79 inlet;
#X obj 78 200 outlet;
#X obj 78 177 moses;
#X obj 78 151 randomF 1;
#X connect 0 0 1 0;
#X connect 1 0 5 1;
#X connect 2 0 6 0;
#X connect 3 0 1 0;
#X connect 5 0 4 0;
#X connect 6 0 5 0;
