#N canvas 1008 269 531 450 10;
#X obj 82 46 inlet;
#X obj 210 44 inlet;
#X obj 210 72 tosymbol;
#X obj 210 254 tolist;
#X obj 82 336 list;
#X obj 210 281 list-len;
#X obj 210 388 outlet;
#X obj 82 362 list-idx;
#X obj 82 108 t b f;
#X obj 82 387 outlet;
#X obj 127 336 int;
#X obj 127 311 *;
#X obj 210 169 textfile;
#X obj 183 226 t b s;
#X obj 210 99 t s b;
#X obj 210 195 tosymbol;
#X msg 210 133 clear \, read \$1 cr \, rewind \, bang;
#X connect 0 0 8 0;
#X connect 1 0 2 0;
#X connect 2 0 14 0;
#X connect 3 0 4 1;
#X connect 3 0 5 0;
#X connect 4 0 7 0;
#X connect 5 0 6 0;
#X connect 5 0 11 1;
#X connect 7 0 9 0;
#X connect 8 0 4 0;
#X connect 8 1 11 0;
#X connect 10 0 7 1;
#X connect 11 0 10 0;
#X connect 12 0 15 0;
#X connect 12 1 3 1;
#X connect 13 0 12 0;
#X connect 13 1 3 0;
#X connect 14 0 16 0;
#X connect 14 1 3 0;
#X connect 15 0 13 0;
#X connect 16 0 12 0;
