#N canvas 178 365 450 442 10;
#X obj 59 58 f;
#X obj 92 58 + 1;
#X obj 59 89 % 8;
#X obj 104 183 f;
#X obj 136 183 + 1;
#X obj 104 212 % 8;
#X obj 104 155 sel 0;
#X obj 59 26 inlet;
#X obj 59 271 outlet;
#X obj 59 241 pack f f;
#X obj 59 116 t f f;
#X connect 0 0 1 0;
#X connect 0 0 2 0;
#X connect 1 0 0 1;
#X connect 2 0 10 0;
#X connect 3 0 4 0;
#X connect 3 0 5 0;
#X connect 4 0 3 1;
#X connect 5 0 9 1;
#X connect 6 0 3 0;
#X connect 7 0 0 0;
#X connect 9 0 8 0;
#X connect 10 0 9 0;
#X connect 10 1 6 0;
