#N canvas 615 22 450 300 10;
#X obj 90 82 inlet;
#X obj 90 113 unpack f f;
#X obj 90 256 noteout;
#X obj 90 172 expr $f1 + $f2*16;
#X obj 216 175 inlet;
#X connect 0 0 1 0;
#X connect 1 0 3 0;
#X connect 1 1 3 1;
#X connect 3 0 2 0;
#X connect 4 0 2 1;
