#N canvas 14 127 723 718 10;
#X obj 294 50 table \$0-pads 128;
#X obj 211 402 tabwrite \$0-pads;
#X obj 211 335 tabread \$0-pads;
#X obj 112 65 inlet;
#X obj 332 211 until;
#X msg 332 184 128;
#X obj 332 331 noteout;
#X obj 359 294 tabread \$0-pads;
#X obj 332 238 ./counter;
#X obj 332 266 t f f;
#X obj 160 438 noteout;
#X obj 192 287 t f f f;
#X obj 79 307 outlet;
#X obj 79 272 tabread \$0-pads;
#X obj 211 365 expr if($f1>0 \, 0 \, 1);
#X obj 192 216 stripnote;
#X obj 192 191 notein 1;
#X obj 192 248 spigot;
#X obj 155 124 sel 1;
#X obj 112 95 route read spigot send toggle;
#X connect 2 0 14 0;
#X connect 3 0 19 0;
#X connect 4 0 8 0;
#X connect 5 0 4 0;
#X connect 7 0 6 1;
#X connect 8 0 9 0;
#X connect 9 0 6 0;
#X connect 9 1 7 0;
#X connect 11 0 10 0;
#X connect 11 1 2 0;
#X connect 11 2 1 1;
#X connect 13 0 12 0;
#X connect 14 0 1 0;
#X connect 14 0 10 1;
#X connect 15 0 17 0;
#X connect 16 0 15 0;
#X connect 16 1 15 1;
#X connect 17 0 11 0;
#X connect 18 0 5 0;
#X connect 19 0 13 0;
#X connect 19 1 17 1;
#X connect 19 1 18 0;
#X connect 19 2 5 0;
#X connect 19 3 17 0;
