#N canvas 798 337 450 323 10;
#X obj 134 211 outlet;
#X obj 50 129 loadbang;
#X obj 133 23 ctlin;
#X obj 181 146 expr if($f1>=104 && $f1<= 111 \, 1 \, 0);
#X obj 134 181 spigot;
#X obj 134 112 t f f;
#X obj 134 58 buddy;
#X obj 134 85 stripnote;
#X obj 134 146 - 104;
#X msg 50 156 0;
#X connect 1 0 9 0;
#X connect 2 0 6 1;
#X connect 2 1 6 0;
#X connect 3 0 4 1;
#X connect 4 0 0 0;
#X connect 5 0 8 0;
#X connect 5 1 3 0;
#X connect 6 0 7 0;
#X connect 6 1 7 1;
#X connect 7 0 5 0;
#X connect 8 0 4 0;
#X connect 9 0 0 0;
